# xmcd CD database file
#
# Track frame offsets:
#	150
#	17275
#	36270
#	52022
#	70057
#	86300
#	106870
#	121500
#	141100
#	159657
#	175285
#	192497
#	207852
#	226185
#	237807
#	254937
#	272995
#	291105
#	317967
#
# Disc length: 4459 seconds
#
# Revision: 0
# Processed by: cddbd v1.5.1PL0 Copyright (c) Steve Scherf et al.
# Submitted via: CDex 1.40Release
#
DISCID=0d116913
DTITLE=Amber - The Greatest Hits
DYEAR=1900
DGENRE=House
TTITLE0=Taste The Tears (Thunderpuss Original Mix)
TTITLE1=Above The Clouds
TTITLE2=Love One Another
TTITLE3=Spiritual Virginity
TTITLE4=Object Of Your Desire
TTITLE5=Sexual (Li Da Di)
TTITLE6=Without You
TTITLE7=I Found Myself In You
TTITLE8=If I'm Not The One
TTITLE9=Let's Do It For Love
TTITLE10=Don't Wanna Stop
TTITLE11=If You Could Read My Mind
TTITLE12=How Can I Tell You
TTITLE13=I'm Free
TTITLE14=Sexual (Thunderpuss Mix)
TTITLE15=This Is Your Night (Original Version)
TTITLE16=This Is Your Night (Junior Vasquez Remix)
TTITLE17=Above The Clouds (Thunderpuss Mix)
TTITLE18=Taste The Tears (Thunderpuss Mix)
EXTD=ID3G: 35
EXTT0=
EXTT1=
EXTT2=
EXTT3=
EXTT4=
EXTT5=
EXTT6=
EXTT7=
EXTT8=
EXTT9=
EXTT10=
EXTT11=
EXTT12=
EXTT13=
EXTT14=
EXTT15=
EXTT16=
EXTT17=
EXTT18=
PLAYORDER=
